<mxfile host="app.diagrams.net" modified="2023-03-01T13:57:58.245Z" agent="5.0 (Windows NT 10.0; Win64; x64) AppleWebKit/537.36 (KHTML, like Gecko) Chrome/110.0.0.0 Safari/537.36" etag="QuQldqzAlsDE_91jeSBr" version="20.8.23" type="github">
  <diagram id="C5RBs43oDa-KdzZeNtuy" name="Page-1">
    <mxGraphModel dx="1434" dy="834" grid="1" gridSize="10" guides="1" tooltips="1" connect="1" arrows="1" fold="1" page="1" pageScale="1" pageWidth="827" pageHeight="1169" math="0" shadow="0">
      <root>
        <mxCell id="WIyWlLk6GJQsqaUBKTNV-0" />
        <mxCell id="WIyWlLk6GJQsqaUBKTNV-1" parent="WIyWlLk6GJQsqaUBKTNV-0" />
        <mxCell id="JJQWFgUNDj0H02YQ_Vq6-24" value="" style="edgeStyle=orthogonalEdgeStyle;rounded=0;orthogonalLoop=1;jettySize=auto;html=1;" edge="1" parent="WIyWlLk6GJQsqaUBKTNV-1" source="JJQWFgUNDj0H02YQ_Vq6-6" target="JJQWFgUNDj0H02YQ_Vq6-23">
          <mxGeometry relative="1" as="geometry" />
        </mxCell>
        <mxCell id="JJQWFgUNDj0H02YQ_Vq6-6" value="Start" style="ellipse;whiteSpace=wrap;html=1;" vertex="1" parent="WIyWlLk6GJQsqaUBKTNV-1">
          <mxGeometry x="354" y="50" width="120" height="80" as="geometry" />
        </mxCell>
        <mxCell id="JJQWFgUNDj0H02YQ_Vq6-30" value="" style="edgeStyle=orthogonalEdgeStyle;rounded=0;orthogonalLoop=1;jettySize=auto;html=1;" edge="1" parent="WIyWlLk6GJQsqaUBKTNV-1" source="JJQWFgUNDj0H02YQ_Vq6-23" target="JJQWFgUNDj0H02YQ_Vq6-29">
          <mxGeometry relative="1" as="geometry" />
        </mxCell>
        <mxCell id="JJQWFgUNDj0H02YQ_Vq6-23" value="pobierz a&lt;br&gt;i=0&lt;br&gt;min=a[i]&lt;br&gt;max=a[i]" style="rounded=0;whiteSpace=wrap;html=1;" vertex="1" parent="WIyWlLk6GJQsqaUBKTNV-1">
          <mxGeometry x="354" y="190" width="120" height="60" as="geometry" />
        </mxCell>
        <mxCell id="JJQWFgUNDj0H02YQ_Vq6-32" value="" style="edgeStyle=orthogonalEdgeStyle;rounded=0;orthogonalLoop=1;jettySize=auto;html=1;startArrow=none;" edge="1" parent="WIyWlLk6GJQsqaUBKTNV-1" source="JJQWFgUNDj0H02YQ_Vq6-33" target="JJQWFgUNDj0H02YQ_Vq6-31">
          <mxGeometry relative="1" as="geometry" />
        </mxCell>
        <mxCell id="JJQWFgUNDj0H02YQ_Vq6-29" value="i&amp;lt;a.dlugosc" style="rhombus;whiteSpace=wrap;html=1;" vertex="1" parent="WIyWlLk6GJQsqaUBKTNV-1">
          <mxGeometry x="374" y="300" width="80" height="80" as="geometry" />
        </mxCell>
        <mxCell id="JJQWFgUNDj0H02YQ_Vq6-36" value="" style="edgeStyle=orthogonalEdgeStyle;rounded=0;orthogonalLoop=1;jettySize=auto;html=1;startArrow=none;" edge="1" parent="WIyWlLk6GJQsqaUBKTNV-1" source="JJQWFgUNDj0H02YQ_Vq6-37" target="JJQWFgUNDj0H02YQ_Vq6-35">
          <mxGeometry relative="1" as="geometry" />
        </mxCell>
        <mxCell id="JJQWFgUNDj0H02YQ_Vq6-40" value="" style="edgeStyle=orthogonalEdgeStyle;rounded=0;orthogonalLoop=1;jettySize=auto;html=1;startArrow=none;" edge="1" parent="WIyWlLk6GJQsqaUBKTNV-1" source="JJQWFgUNDj0H02YQ_Vq6-41" target="JJQWFgUNDj0H02YQ_Vq6-39">
          <mxGeometry relative="1" as="geometry" />
        </mxCell>
        <mxCell id="JJQWFgUNDj0H02YQ_Vq6-31" value="a[i]&amp;lt;min" style="rhombus;whiteSpace=wrap;html=1;" vertex="1" parent="WIyWlLk6GJQsqaUBKTNV-1">
          <mxGeometry x="570" y="300" width="80" height="80" as="geometry" />
        </mxCell>
        <mxCell id="JJQWFgUNDj0H02YQ_Vq6-34" value="" style="edgeStyle=orthogonalEdgeStyle;rounded=0;orthogonalLoop=1;jettySize=auto;html=1;endArrow=none;" edge="1" parent="WIyWlLk6GJQsqaUBKTNV-1" source="JJQWFgUNDj0H02YQ_Vq6-29" target="JJQWFgUNDj0H02YQ_Vq6-33">
          <mxGeometry relative="1" as="geometry">
            <mxPoint x="454" y="340" as="sourcePoint" />
            <mxPoint x="570" y="340" as="targetPoint" />
          </mxGeometry>
        </mxCell>
        <mxCell id="JJQWFgUNDj0H02YQ_Vq6-33" value="Tak" style="text;html=1;align=center;verticalAlign=middle;resizable=0;points=[];autosize=1;strokeColor=none;fillColor=none;" vertex="1" parent="WIyWlLk6GJQsqaUBKTNV-1">
          <mxGeometry x="485" y="325" width="40" height="30" as="geometry" />
        </mxCell>
        <mxCell id="JJQWFgUNDj0H02YQ_Vq6-47" style="edgeStyle=orthogonalEdgeStyle;rounded=0;orthogonalLoop=1;jettySize=auto;html=1;" edge="1" parent="WIyWlLk6GJQsqaUBKTNV-1" source="JJQWFgUNDj0H02YQ_Vq6-35" target="JJQWFgUNDj0H02YQ_Vq6-41">
          <mxGeometry relative="1" as="geometry">
            <Array as="points">
              <mxPoint x="820" y="265" />
            </Array>
          </mxGeometry>
        </mxCell>
        <mxCell id="JJQWFgUNDj0H02YQ_Vq6-35" value="min=a[i]" style="rounded=0;whiteSpace=wrap;html=1;" vertex="1" parent="WIyWlLk6GJQsqaUBKTNV-1">
          <mxGeometry x="750" y="310" width="120" height="60" as="geometry" />
        </mxCell>
        <mxCell id="JJQWFgUNDj0H02YQ_Vq6-38" value="" style="edgeStyle=orthogonalEdgeStyle;rounded=0;orthogonalLoop=1;jettySize=auto;html=1;endArrow=none;" edge="1" parent="WIyWlLk6GJQsqaUBKTNV-1" source="JJQWFgUNDj0H02YQ_Vq6-31" target="JJQWFgUNDj0H02YQ_Vq6-37">
          <mxGeometry relative="1" as="geometry">
            <mxPoint x="650" y="340" as="sourcePoint" />
            <mxPoint x="750" y="340" as="targetPoint" />
          </mxGeometry>
        </mxCell>
        <mxCell id="JJQWFgUNDj0H02YQ_Vq6-37" value="Tak" style="text;html=1;align=center;verticalAlign=middle;resizable=0;points=[];autosize=1;strokeColor=none;fillColor=none;" vertex="1" parent="WIyWlLk6GJQsqaUBKTNV-1">
          <mxGeometry x="675" y="325" width="40" height="30" as="geometry" />
        </mxCell>
        <mxCell id="JJQWFgUNDj0H02YQ_Vq6-44" value="" style="edgeStyle=orthogonalEdgeStyle;rounded=0;orthogonalLoop=1;jettySize=auto;html=1;startArrow=none;" edge="1" parent="WIyWlLk6GJQsqaUBKTNV-1" source="JJQWFgUNDj0H02YQ_Vq6-45" target="JJQWFgUNDj0H02YQ_Vq6-43">
          <mxGeometry relative="1" as="geometry" />
        </mxCell>
        <mxCell id="JJQWFgUNDj0H02YQ_Vq6-48" style="edgeStyle=orthogonalEdgeStyle;rounded=0;orthogonalLoop=1;jettySize=auto;html=1;entryX=0.5;entryY=0;entryDx=0;entryDy=0;" edge="1" parent="WIyWlLk6GJQsqaUBKTNV-1" source="JJQWFgUNDj0H02YQ_Vq6-39" target="JJQWFgUNDj0H02YQ_Vq6-29">
          <mxGeometry relative="1" as="geometry">
            <Array as="points">
              <mxPoint x="510" y="190" />
              <mxPoint x="510" y="290" />
              <mxPoint x="414" y="290" />
            </Array>
          </mxGeometry>
        </mxCell>
        <mxCell id="JJQWFgUNDj0H02YQ_Vq6-39" value="a[i]&amp;gt;max" style="rhombus;whiteSpace=wrap;html=1;" vertex="1" parent="WIyWlLk6GJQsqaUBKTNV-1">
          <mxGeometry x="570" y="150" width="80" height="80" as="geometry" />
        </mxCell>
        <mxCell id="JJQWFgUNDj0H02YQ_Vq6-42" value="" style="edgeStyle=orthogonalEdgeStyle;rounded=0;orthogonalLoop=1;jettySize=auto;html=1;endArrow=none;" edge="1" parent="WIyWlLk6GJQsqaUBKTNV-1" source="JJQWFgUNDj0H02YQ_Vq6-31" target="JJQWFgUNDj0H02YQ_Vq6-41">
          <mxGeometry relative="1" as="geometry">
            <mxPoint x="610" y="300" as="sourcePoint" />
            <mxPoint x="610" y="230" as="targetPoint" />
          </mxGeometry>
        </mxCell>
        <mxCell id="JJQWFgUNDj0H02YQ_Vq6-41" value="Nie" style="text;html=1;align=center;verticalAlign=middle;resizable=0;points=[];autosize=1;strokeColor=none;fillColor=none;" vertex="1" parent="WIyWlLk6GJQsqaUBKTNV-1">
          <mxGeometry x="590" y="250" width="40" height="30" as="geometry" />
        </mxCell>
        <mxCell id="JJQWFgUNDj0H02YQ_Vq6-49" style="edgeStyle=orthogonalEdgeStyle;rounded=0;orthogonalLoop=1;jettySize=auto;html=1;" edge="1" parent="WIyWlLk6GJQsqaUBKTNV-1" source="JJQWFgUNDj0H02YQ_Vq6-43" target="JJQWFgUNDj0H02YQ_Vq6-29">
          <mxGeometry relative="1" as="geometry">
            <Array as="points">
              <mxPoint x="810" y="90" />
              <mxPoint x="510" y="90" />
              <mxPoint x="510" y="290" />
              <mxPoint x="414" y="290" />
            </Array>
          </mxGeometry>
        </mxCell>
        <mxCell id="JJQWFgUNDj0H02YQ_Vq6-43" value="max=a[i]" style="rounded=0;whiteSpace=wrap;html=1;" vertex="1" parent="WIyWlLk6GJQsqaUBKTNV-1">
          <mxGeometry x="750" y="160" width="120" height="60" as="geometry" />
        </mxCell>
        <mxCell id="JJQWFgUNDj0H02YQ_Vq6-46" value="" style="edgeStyle=orthogonalEdgeStyle;rounded=0;orthogonalLoop=1;jettySize=auto;html=1;endArrow=none;" edge="1" parent="WIyWlLk6GJQsqaUBKTNV-1" source="JJQWFgUNDj0H02YQ_Vq6-39" target="JJQWFgUNDj0H02YQ_Vq6-45">
          <mxGeometry relative="1" as="geometry">
            <mxPoint x="650" y="190" as="sourcePoint" />
            <mxPoint x="750" y="190" as="targetPoint" />
          </mxGeometry>
        </mxCell>
        <mxCell id="JJQWFgUNDj0H02YQ_Vq6-45" value="Tak" style="text;html=1;align=center;verticalAlign=middle;resizable=0;points=[];autosize=1;strokeColor=none;fillColor=none;" vertex="1" parent="WIyWlLk6GJQsqaUBKTNV-1">
          <mxGeometry x="675" y="175" width="40" height="30" as="geometry" />
        </mxCell>
      </root>
    </mxGraphModel>
  </diagram>
</mxfile>
